<svg id="Layer_26" data-name="Layer 26" xmlns="http://www.w3.org/2000/svg" viewBox="0 0 882.98 297.89"><defs><style>.cls-1,.cls-2{fill:#fff;}.cls-2{font-size:120px;font-family:Raleway-Light, Raleway;font-weight:300;}.cls-3,.cls-4,.cls-5{font-family:Raleway-Bold, Raleway;font-weight:700;}.cls-3{letter-spacing:-0.03em;}.cls-5{letter-spacing:-0.03em;}</style></defs><title>Logo_White</title><path class="cls-1" d="M206.76,449.76c0,52.23-27.34,94.85-61.69,97.29,28.67-2.32,51.46-40.32,51.46-86.85a127.06,127.06,0,0,0-8.75-47.39,23.58,23.58,0,0,0-2.51-5.66A23.31,23.31,0,0,0,165.36,396h0a23.32,23.32,0,0,0-23,19.45,23.34,23.34,0,0,0-23-19.45h-.64a23.34,23.34,0,0,0-20.36,13.17.13.13,0,0,0,0,.05c-.2.42-.4.86-.57,1.29-1.24,2.84-2.37,5.81-3.39,8.87a125,125,0,0,0-5.62,26.76c-.24,2.27-.41,4.58-.53,6.9a45,45,0,0,1-10.46-16.53c.09-1.07.2-2.15.32-3.21.42-3.68,1-7.3,1.65-10.83,4.16-21.43,13.08-39.81,24.92-52.36a52.69,52.69,0,0,0,18.2,8.88c1,.28,2,.54,3.08.78a75.33,75.33,0,0,0,32.41.19c1.2-.27,2.39-.56,3.54-.88a53.44,53.44,0,0,0,17.88-8.46C196.11,388.3,206.76,417.16,206.76,449.76Z" transform="translate(-77.02 -370.11)"/><path class="cls-1" d="M77.09,445.33c15.75,38.26,66.68,34.95,77.25-.46C159.86,504.19,74.33,507.41,77.09,445.33Z" transform="translate(-77.02 -370.11)"/><path class="cls-1" d="M81,472.75c16.34,35.12,64.62,28.22,73.16-4.37C161.7,524.89,79.85,530.4,81,472.75Z" transform="translate(-77.02 -370.11)"/><path class="cls-1" d="M94.56,508.19c17.69,16.32,48.27,8.87,55.29-10.48C155,530.66,103.51,538.55,94.56,508.19Z" transform="translate(-77.02 -370.11)"/><path class="cls-1" d="M148.36,517.53C146.9,535,121.58,545.58,107,525.81,134.24,540.52,148.36,517.53,148.36,517.53Z" transform="translate(-77.02 -370.11)"/><ellipse class="cls-1" cx="121.8" cy="413.54" rx="5.13" ry="8.88" transform="translate(-333.76 -162.86) rotate(-45)"/><ellipse class="cls-1" cx="162.59" cy="413.54" rx="8.88" ry="5.13" transform="translate(-321.82 -134.01) rotate(-45)"/><path class="cls-1" d="M142.39,440.73c-11.16-19.77-.45-2.3,0-30.81C142.85,438.43,153.88,421,142.39,440.73Z" transform="translate(-77.02 -370.11)"/><text class="cls-2" transform="translate(149.3 121.86)">Theme<tspan class="cls-3" x="391.55" y="0">O</tspan><tspan class="cls-4" x="478.91" y="0">W</tspan><tspan class="cls-5" x="605.27" y="0">L</tspan></text></svg>